<svg id="Layer_1" data-name="Layer 1" xmlns="http://www.w3.org/2000/svg" viewBox="0 0 200 200"><defs><style>.cls-1{fill:#f6f5f5;}.cls-2{fill:#686867;}.cls-3{fill:#5987c5;}.cls-4{fill:#686969;}.cls-5{fill:#50514d;}.cls-6{fill:#fff;}.cls-7{fill:#4b709b;}.cls-8{fill:none;}</style></defs><title>sleep-robot</title><circle class="cls-1" cx="100" cy="100" r="98.34"/><path class="cls-2" d="M100,200A100,100,0,0,1,29.29,29.29,100,100,0,1,1,170.71,170.71,99.34,99.34,0,0,1,100,200ZM100,3.32A96.68,96.68,0,1,0,196.68,100,96.79,96.79,0,0,0,100,3.32Z"/><path class="cls-2" d="M100,200A100,100,0,0,1,29.29,29.29,100,100,0,1,1,170.71,170.71,99.34,99.34,0,0,1,100,200ZM100,3.32A96.68,96.68,0,1,0,196.68,100,96.79,96.79,0,0,0,100,3.32Z"/><path class="cls-3" d="M101.43,89.84a73.34,73.34,0,0,1-73.34,73.35h-1a98.35,98.35,0,0,0,148.77,0h-1a73.35,73.35,0,0,1-73.35-73.35"/><path class="cls-4" d="M100.13,199.6A100,100,0,0,1,24.49,165l-2.43-2.8,3.71,0h1A71.76,71.76,0,0,0,98.47,90.58h3.32a71.76,71.76,0,0,0,71.68,71.68h1l3.7,0-2.42,2.8A100,100,0,0,1,100.13,199.6ZM29.44,165.54a96.67,96.67,0,0,0,141.38,0,75.05,75.05,0,0,1-70.69-59.13,75.08,75.08,0,0,1-70.69,59.13Z"/><path class="cls-3" d="M100,108.66a73.35,73.35,0,0,1,73.34-73.34h1a98.32,98.32,0,0,0-148.76,0h1A73.35,73.35,0,0,1,100,108.66"/><path class="cls-4" d="M101.66,109.33H98.34A71.76,71.76,0,0,0,26.66,37.65h-1l-3.71.05,2.43-2.8a100,100,0,0,1,151.28,0l2.43,2.8-3.71-.05h-1A71.76,71.76,0,0,0,101.66,109.33Zm-72.35-75A75.08,75.08,0,0,1,100,93.5a75.08,75.08,0,0,1,70.69-59.13,96.67,96.67,0,0,0-141.38,0Z"/><rect class="cls-5" x="24.18" y="69.3" width="151.64" height="65.17" rx="26.07"/><circle class="cls-6" cx="63.82" cy="101.88" r="21.62"/><circle class="cls-3" cx="63.82" cy="101.88" r="17.41"/><circle class="cls-7" cx="63.82" cy="101.88" r="12.24"/><circle class="cls-6" cx="71.58" cy="92.24" r="7.76"/><circle class="cls-6" cx="138.7" cy="101.88" r="21.62"/><circle class="cls-3" cx="138.7" cy="101.88" r="17.41"/><circle class="cls-7" cx="138.7" cy="101.88" r="12.24"/><circle class="cls-6" cx="146.46" cy="92.24" r="7.76"/><rect class="cls-8" width="200" height="200"/></svg>