<?xml version="1.0" encoding="utf-8"?>
<!-- Generator: Adobe Illustrator 23.0.4, SVG Export Plug-In . SVG Version: 6.00 Build 0)  -->
<svg version="1.1" id="Layer_1" xmlns="http://www.w3.org/2000/svg" xmlns:xlink="http://www.w3.org/1999/xlink" x="0px" y="0px"
	 viewBox="0 0 1058 396" style="enable-background:new 0 0 1058 396;" xml:space="preserve">
<style type="text/css">
	.st0{fill:url(#SVGID_1_);}
	.st1{fill:url(#SVGID_2_);}
	.st2{fill:url(#SVGID_3_);}
	.st3{fill:url(#SVGID_4_);}
	.st4{fill:url(#SVGID_5_);}
	.st5{fill:url(#SVGID_6_);}
	.st6{fill:url(#SVGID_7_);}
	.st7{fill:url(#SVGID_8_);}
</style>
<title>logo-gocloud</title>
<linearGradient id="SVGID_1_" gradientUnits="userSpaceOnUse" x1="194.1351" y1="199.8919" x2="509.7095" y2="582.8707">
	<stop  offset="0" style="stop-color:#217BE7"/>
	<stop  offset="0.65" style="stop-color:#7E27D8"/>
</linearGradient>
<path class="st0" d="M269.6,122.4h39c0,0-22-83-128-83s-139,95-139,143s18,103,70,132s121,23,158-21l12,32h27v-149h-130v29h92
	c0,0-5,61-60,88s-119-12-125-86s27-130,78-137S253.6,81.4,269.6,122.4z"/>
<linearGradient id="SVGID_2_" gradientUnits="userSpaceOnUse" x1="340.2035" y1="79.5316" x2="655.7779" y2="462.5103">
	<stop  offset="0" style="stop-color:#217BE7"/>
	<stop  offset="0.65" style="stop-color:#7E27D8"/>
</linearGradient>
<path class="st1" d="M454.6,43.4v50c0,0-68,12-76,81c0,0-11,83,76,104v49c0,0-122-10-129-142C325.6,185.4,319.6,69.4,454.6,43.4z"/>
<linearGradient id="SVGID_3_" gradientUnits="userSpaceOnUse" x1="480.3334" y1="-35.9355" x2="795.9079" y2="347.0432">
	<stop  offset="0" style="stop-color:#217BE7"/>
	<stop  offset="0.65" style="stop-color:#7E27D8"/>
</linearGradient>
<path class="st2" d="M761.6,254.4c-28.2,0-51,22.8-51,51c0,28.2,22.8,51,51,51s51-22.8,51-51C812.6,277.2,789.8,254.4,761.6,254.4z
	 M761.3,338.9c-18.4,0-33.2-14.9-33.2-33.2s14.9-33.2,33.2-33.2s33.2,14.9,33.2,33.2S779.7,338.9,761.3,338.9z"/>
<linearGradient id="SVGID_4_" gradientUnits="userSpaceOnUse" x1="379.6738" y1="47.008" x2="695.2483" y2="429.9867">
	<stop  offset="0" style="stop-color:#217BE7"/>
	<stop  offset="0.65" style="stop-color:#7E27D8"/>
</linearGradient>
<path class="st3" d="M620.9,322.7c-5.8,9.7-16.4,16.2-28.5,16.2c-18.4,0-33.2-14.9-33.2-33.2s14.9-33.2,33.2-33.2
	c11.6,0,21.8,5.9,27.7,14.9l13.6-12.1c-9.3-12.6-24.2-20.8-41.1-20.8c-28.2,0-51,22.8-51,51c0,28.2,22.8,51,51,51
	c16.9,0,31.9-8.2,41.1-20.9L620.9,322.7z"/>
<linearGradient id="SVGID_5_" gradientUnits="userSpaceOnUse" x1="392.438" y1="36.4903" x2="708.0125" y2="419.469">
	<stop  offset="0" style="stop-color:#217BE7"/>
	<stop  offset="0.65" style="stop-color:#7E27D8"/>
</linearGradient>
<path class="st4" d="M589.1,237.7c3.9,0,7.7,0.3,11.4,1c0.1-0.1,0.1-0.2,0.2-0.3c0,0,31-61-15-134c0,0-34-50-91-58v51
	c0,0,36,8,56,49s2,113-56,129v52c0,0,11.7-1.9,28.6-10.7c-0.7-3.9-1.1-7.9-1.1-12C522.1,267.7,552.1,237.7,589.1,237.7z"/>
<g>
	<linearGradient id="SVGID_6_" gradientUnits="userSpaceOnUse" x1="416.0085" y1="17.0682" x2="731.5829" y2="400.0469">
		<stop  offset="0" style="stop-color:#217BE7"/>
		<stop  offset="0.65" style="stop-color:#7E27D8"/>
	</linearGradient>
	<polygon class="st5" points="709.1,352.4 645.6,352.4 645.6,258.4 661.6,258.4 661.6,336.4 709.1,336.4 	"/>
</g>
<linearGradient id="SVGID_7_" gradientUnits="userSpaceOnUse" x1="551.1764" y1="-94.3102" x2="866.7509" y2="288.6686">
	<stop  offset="0" style="stop-color:#217BE7"/>
	<stop  offset="0.65" style="stop-color:#7E27D8"/>
</linearGradient>
<path class="st6" d="M896.1,257.9v53c0,0,2,26-25,26s-25-26-25-26v-53h-18c0,0,0,9,0,54s43,44,43,44s43,1,43-44s0-54,0-54H896.1z"/>
<linearGradient id="SVGID_8_" gradientUnits="userSpaceOnUse" x1="598.933" y1="-133.6616" x2="914.5074" y2="249.3172">
	<stop  offset="0" style="stop-color:#217BE7"/>
	<stop  offset="0.65" style="stop-color:#7E27D8"/>
</linearGradient>
<path class="st7" d="M967.1,257.9c-15,0-37,0-37,0v96h33c0,0,52,2,52-45S982.1,257.9,967.1,257.9z M966.4,338.9h-18.8v-66.2
	c0,0,12.6,0,21.1,0s27.4,2.8,27.4,35.2C996.1,340.3,966.4,338.9,966.4,338.9z"/>
</svg>
