<svg id="Capa_1" data-name="Capa 1" xmlns="http://www.w3.org/2000/svg" viewBox="0 0 94.62 129.85"><defs><style>.cls-1{fill:#f6f6f6;}.cls-2{fill:#686868;}.cls-3{fill:#c4c4c4;}.cls-4{fill:#d9dfe8;}.cls-5{fill:#696969;}.cls-6{fill:#bfbebe;}.cls-7{fill:#a0a09f;}.cls-8{fill:#50514d;}.cls-9{fill:#fff;}.cls-10{fill:#9c9b9b;}</style></defs><title>Robot</title><path class="cls-1" d="M42.78,140C35.47,117.56,55,101.76,71.53,101.76s35,17.9,28.88,37.81" transform="translate(-24.22 -10.16)"/><path class="cls-2" d="M41.69,140a30.15,30.15,0,0,1-1.13-8.32,31,31,0,1,1,61.94,0,21.1,21.1,0,0,1-1.13,8.32m-1.86,0c1.86-12.77.13-16-1.37-19.56a28.9,28.9,0,0,0-53.22,0c-1.5,3.56-3.25,7.35-1.05,19.56" transform="translate(-24.22 -10.16)"/><path class="cls-3" d="M100.12,140a33.76,33.76,0,0,0,1.39-8.32c0-.56,0-1.11,0-1.65H79.85l-8.26,8.26L63.33,130H41.71c0,.54,0,1.09,0,1.65A30,30,0,0,0,42.84,140" transform="translate(-24.22 -10.16)"/><path class="cls-2" d="M41.69,140a31,31,0,1,1,60.81-8.32,33.58,33.58,0,0,1-1.13,8.32m-2.18,0a28.88,28.88,0,1,0-55.32,0" transform="translate(-24.22 -10.16)"/><circle class="cls-1" cx="47.31" cy="47.31" r="46.26"/><path class="cls-2" d="M71.53,104.78A47.13,47.13,0,1,1,90,101.06,47.18,47.18,0,0,1,71.53,104.78Zm0-92.53a45.23,45.23,0,0,0-17.6,86.88A45.23,45.23,0,0,0,89.13,15.8,44.89,44.89,0,0,0,71.53,12.25Z" transform="translate(-24.22 -10.16)"/><path class="cls-4" d="M71.05,11.2a46.69,46.69,0,0,0-6.29.43,46.27,46.27,0,0,1,0,91.67,46.27,46.27,0,1,0,6.29-92.1Z" transform="translate(-24.22 -10.16)"/><path class="cls-4" d="M102.52,23.31a29.88,29.88,0,0,0-5.23.27c-15.21,2.07-26,14.89-24.16,28.64a24.73,24.73,0,0,0,.71,3.36C74,43.18,84.27,32.25,98.21,30.35a30.31,30.31,0,0,1,11,.51A46,46,0,0,0,102.52,23.31Z" transform="translate(-24.22 -10.16)"/><path class="cls-4" d="M40.8,23.31a29.88,29.88,0,0,1,5.23.27c15.22,2.07,26,14.89,24.16,28.64a24.73,24.73,0,0,1-.71,3.36c-.18-12.4-10.43-23.33-24.37-25.23a30.31,30.31,0,0,0-11,.51A46.48,46.48,0,0,1,40.8,23.31Z" transform="translate(-24.22 -10.16)"/><path class="cls-2" d="M71.53,104.78A47.13,47.13,0,1,1,90,101.06,47.18,47.18,0,0,1,71.53,104.78Zm0-92.53a45.23,45.23,0,0,0-17.6,86.88A45.23,45.23,0,0,0,89.13,15.8,44.89,44.89,0,0,0,71.53,12.25Z" transform="translate(-24.22 -10.16)"/><path class="cls-3" d="M71.53,62.48A34.5,34.5,0,0,1,106,28h.48a46.26,46.26,0,0,0-70,0H37a34.5,34.5,0,0,1,34.51,34.5" transform="translate(-24.22 -10.16)"/><path class="cls-5" d="M72.58,62.48h-2.1a33.38,33.38,0,0,0-9.8-23.66A33.34,33.34,0,0,0,37,29h-.47l-2.33,0,1.52-1.77A47.57,47.57,0,0,1,51.53,15.35a47.41,47.41,0,0,1,40,0,47.57,47.57,0,0,1,15.79,11.94l1.52,1.77-2.33,0H106A33.44,33.44,0,0,0,72.58,62.48ZM38.86,27a35.56,35.56,0,0,1,32.67,26.9A35.5,35.5,0,0,1,104.2,27a45.22,45.22,0,0,0-65.34,0Z" transform="translate(-24.22 -10.16)"/><path class="cls-3" d="M72.2,52.69a34.49,34.49,0,0,1-34.5,34.5h-.49a46.27,46.27,0,0,0,70,0h-.49A34.5,34.5,0,0,1,72.2,52.69" transform="translate(-24.22 -10.16)"/><path class="cls-6" d="M41.61,125.84a29.87,29.87,0,0,1,8.09-15.22A10.08,10.08,0,1,0,41,125.86Z" transform="translate(-24.22 -10.16)"/><path class="cls-5" d="M41,126.9a11.13,11.13,0,1,1,9.56-16.82l.42.7-.57.57A28.7,28.7,0,0,0,42.63,126l-.16.8-.81,0Zm0-20.17a9,9,0,0,0-.28,18.08,30.79,30.79,0,0,1,7.61-14.32A9,9,0,0,0,41,106.73Z" transform="translate(-24.22 -10.16)"/><path class="cls-6" d="M101.48,125.84a29.87,29.87,0,0,0-8.09-15.22,10.08,10.08,0,1,1,8.66,15.24Z" transform="translate(-24.22 -10.16)"/><path class="cls-5" d="M102.05,126.9h-.62l-.81,0-.16-.8a28.7,28.7,0,0,0-7.82-14.69l-.57-.57.42-.7a11.13,11.13,0,1,1,9.56,16.82Zm-7.33-16.41a30.79,30.79,0,0,1,7.61,14.32,9,9,0,1,0-7.61-14.32Z" transform="translate(-24.22 -10.16)"/><path class="cls-6" d="M38.05,140l2.14-11.16a3,3,0,0,0-2-3.41c-.34-.1-.67-.22-1-.35a3,3,0,0,0-4,2L29.87,140" transform="translate(-24.22 -10.16)"/><path class="cls-5" d="M28.79,140l3.33-13.16a4,4,0,0,1,5.43-2.74,7.28,7.28,0,0,0,.89.32,4,4,0,0,1,2.78,4.6l-2.1,11M37,140l2.17-11.36a1.91,1.91,0,0,0-1.32-2.2,11.14,11.14,0,0,1-1.1-.4,2.06,2.06,0,0,0-.73-.14,1.86,1.86,0,0,0-.85.2,1.94,1.94,0,0,0-1,1.26L31,140" transform="translate(-24.22 -10.16)"/><path class="cls-6" d="M104.89,140l-2.14-11.16a3,3,0,0,1,2.06-3.41c.33-.1.67-.22,1-.35a3,3,0,0,1,4,2l3.26,12.9" transform="translate(-24.22 -10.16)"/><path class="cls-5" d="M103.75,140l-2-11a4,4,0,0,1,2.78-4.6,6.59,6.59,0,0,0,.88-.32,4,4,0,0,1,5.43,2.74L114.15,140M112,140l-3.2-12.64a1.94,1.94,0,0,0-1-1.26,1.83,1.83,0,0,0-.85-.2,2.06,2.06,0,0,0-.73.14,10.12,10.12,0,0,1-1.09.4,1.9,1.9,0,0,0-1.33,2.2L106,140" transform="translate(-24.22 -10.16)"/><path class="cls-7" d="M106,28A46.14,46.14,0,0,0,71,12c-1.16,0-2.3,0-3.44.12A46.27,46.27,0,0,1,95.32,29.51,34.4,34.4,0,0,1,105.52,28Z" transform="translate(-24.22 -10.16)"/><path class="cls-7" d="M105.46,87.54a46.17,46.17,0,0,1-35,16c-1.15,0-2.3,0-3.43-.13A46.28,46.28,0,0,0,94.77,86,34.68,34.68,0,0,0,105,87.54Z" transform="translate(-24.22 -10.16)"/><path class="cls-5" d="M72.58,62.48h-2.1a33.38,33.38,0,0,0-9.8-23.66A33.34,33.34,0,0,0,37,29h-.47l-2.33,0,1.52-1.77A47.57,47.57,0,0,1,51.53,15.35a47.41,47.41,0,0,1,40,0,47.57,47.57,0,0,1,15.79,11.94l1.52,1.77-2.33,0H106A33.44,33.44,0,0,0,72.58,62.48ZM38.86,27a35.56,35.56,0,0,1,32.67,26.9A35.5,35.5,0,0,1,104.2,27a45.22,45.22,0,0,0-65.34,0Z" transform="translate(-24.22 -10.16)"/><path class="cls-5" d="M71.59,104.59A47.25,47.25,0,0,1,35.8,88.22l-1.52-1.76,2.33,0h.48A33.43,33.43,0,0,0,70.54,53h2.1A33.4,33.4,0,0,0,106.1,86.49h.47l2.33,0-1.52,1.76a47.22,47.22,0,0,1-15.79,11.94,47.12,47.12,0,0,1-20,4.43Zm-32.67-16a45.43,45.43,0,0,0,5.39,4.8,46.13,46.13,0,0,0,8.16,4.93,45.2,45.2,0,0,0,9.18,3.13,45.87,45.87,0,0,0,19.88,0,45.2,45.2,0,0,0,9.18-3.13,46.13,46.13,0,0,0,8.16-4.93,45.43,45.43,0,0,0,5.39-4.8,35.59,35.59,0,0,1-32.67-26.9,35.57,35.57,0,0,1-9.37,16.53,35.44,35.44,0,0,1-23.3,10.37Z" transform="translate(-24.22 -10.16)"/><rect class="cls-8" x="11.64" y="32.87" width="71.34" height="30.66" rx="15.33"/><circle class="cls-9" cx="30.29" cy="48.2" r="10.17"/><circle class="cls-3" cx="30.29" cy="48.2" r="8.19"/><circle class="cls-10" cx="30.29" cy="48.2" r="5.76"/><circle class="cls-9" cx="33.94" cy="43.66" r="3.65"/><circle class="cls-9" cx="65.51" cy="48.2" r="10.17"/><circle class="cls-3" cx="65.51" cy="48.2" r="8.19"/><circle class="cls-10" cx="65.51" cy="48.2" r="5.76"/><circle class="cls-9" cx="69.17" cy="43.66" r="3.65"/><path class="cls-2" d="M101.37,140" transform="translate(-24.22 -10.16)"/></svg>