<svg id="Layer_1" data-name="Layer 1" xmlns="http://www.w3.org/2000/svg" viewBox="0 0 200 200"><defs><style>.cls-1{fill:none;}</style></defs><title>gc-icon</title><rect class="cls-1" width="200" height="200"/><path d="M185,122.34H89.41L71.56,104.51,54.12,122.34H15.18a15,15,0,0,1,0-30H41.5L71.31,61.86l30.52,30.48H185a15,15,0,0,1,0,30Z"/><path d="M184.87,200H15.18a15,15,0,0,1,0-30H184.87a15,15,0,0,1,0,30Z"/><path d="M128.92,60.59,98.4,30.12H15.18a15,15,0,0,1,0-30h95.63l17.86,17.82L146.11.12H185a15,15,0,0,1,0,30H158.73Z"/></svg>