<svg id="Layer_1" data-name="Layer 1" xmlns="http://www.w3.org/2000/svg" viewBox="0 0 200 200"><defs><style>.cls-1{fill:none;}</style></defs><title>gc-icon</title><rect class="cls-1" width="200" height="200"/><path d="M196.21,8.51H196a3.78,3.78,0,0,0-1.48.39L2.24,98.22a3.81,3.81,0,0,0-.08,6.9l50.59,24.82a3.86,3.86,0,0,0,4-.37l54.67-40.82a2.23,2.23,0,0,1,2.92,3.37L71.22,136.44a3.77,3.77,0,0,0-1.08,3l3.74,48.77a3.85,3.85,0,0,0,6.75,2.22l26-30.16a2.2,2.2,0,0,1,1.68-.77,2.18,2.18,0,0,1,1,.22l34.8,16.6a3.78,3.78,0,0,0,1.66.38,3.85,3.85,0,0,0,3.67-2.7L199.79,13.65a4.13,4.13,0,0,0,.22-1.3A3.85,3.85,0,0,0,196.21,8.51Z"/></svg>