<svg id="Layer_1" data-name="Layer 1" xmlns="http://www.w3.org/2000/svg" viewBox="0 0 200 200"><defs><style>.cls-1{fill:none;}.cls-2{fill:#010101;}</style></defs><title>gc-icon</title><rect class="cls-1" x="-0.12" width="200" height="200"/><g id="details"><circle id="Ellipse_64" data-name="Ellipse 64" class="cls-2" cx="100.01" cy="100" r="36.34"/><path id="Path_19" data-name="Path 19" class="cls-2" d="M197.37,90.36a113.06,113.06,0,0,0-95.87-52A120.13,120.13,0,0,0,3,90.36a16.11,16.11,0,0,0-.2,18.36A116.37,116.37,0,0,0,99.4,161.63a118.85,118.85,0,0,0,97.71-53.21A16.15,16.15,0,0,0,197.37,90.36ZM100,154.25A54.23,54.23,0,1,1,154.23,100,54.23,54.23,0,0,1,100,154.25Z"/></g></svg>