<svg id="Layer_1" data-name="Layer 1" xmlns="http://www.w3.org/2000/svg" viewBox="0 0 200 200"><defs><style>.cls-1{fill:none;}.cls-2{fill:#010101;}</style></defs><title>gc-icon</title><rect class="cls-1" x="0.25" width="200" height="200"/><path class="cls-2" d="M160.45,37.84C151,15.45,127.47.14,100.37.14c-44.77,0-62.44,37.7-64.8,57.73h0a17.82,17.82,0,0,0,35.32,4.71h0c0-4.71,4.72-27.1,29.46-27.1,15.31,0,23.56,8.25,27.1,16.49,1.17,2.36,3.53,10.61-2.36,16.5a41.2,41.2,0,0,1-10.6,7.07c-13,7.07-31.82,18.85-31.82,54.19h0a17.67,17.67,0,1,0,35.34,0c0-11.78,3.53-17.67,14.14-23.56,5.89-3.53,13-7.07,18.85-13C165.17,79.07,168.7,57.87,160.45,37.84Z"/><path class="cls-2" d="M100.12,159.56a20.26,20.26,0,1,0,20.26,20.26A20.26,20.26,0,0,0,100.12,159.56Z"/></svg>