<svg id="Layer_1" data-name="Layer 1" xmlns="http://www.w3.org/2000/svg" viewBox="0 0 200 200"><defs><style>.cls-1{fill:none;}</style></defs><title>gc-icon</title><rect class="cls-1" width="200" height="200"/><path d="M61,41.39a9.29,9.29,0,0,0-9.29,9.3v98.62a9.3,9.3,0,1,0,18.59,0V50.69a9.3,9.3,0,0,0-9.3-9.3"/><path d="M138.72,41.39a9.3,9.3,0,0,0-9.3,9.3v98.62a9.3,9.3,0,1,0,18.59,0V50.69a9.29,9.29,0,0,0-9.29-9.3"/><path d="M112.8,64.86a9.29,9.29,0,0,0-9.29,9.3v51.68a9.3,9.3,0,1,0,18.59,0V74.16a9.3,9.3,0,0,0-9.3-9.3"/><path d="M164.63,64.86a9.29,9.29,0,0,0-9.29,9.3v51.68a9.3,9.3,0,1,0,18.59,0V74.16a9.3,9.3,0,0,0-9.3-9.3"/><path d="M35.06,64.86a9.3,9.3,0,0,0-9.3,9.3v51.68a9.3,9.3,0,1,0,18.59,0V74.16a9.29,9.29,0,0,0-9.29-9.3"/><path d="M9.14,78a9.3,9.3,0,0,0-9.3,9.3v25.36a9.3,9.3,0,0,0,18.6,0V87.32A9.3,9.3,0,0,0,9.14,78"/><path d="M86.89,78a9.3,9.3,0,0,0-9.3,9.3v25.36a9.3,9.3,0,1,0,18.59,0V87.32A9.29,9.29,0,0,0,86.89,78"/><path d="M190.55,78a9.3,9.3,0,0,0-9.3,9.3v25.36a9.3,9.3,0,1,0,18.59,0V87.32a9.29,9.29,0,0,0-9.29-9.3"/></svg>