<svg id="Layer_1" data-name="Layer 1" xmlns="http://www.w3.org/2000/svg" viewBox="0 0 200 200"><defs><style>.cls-1{fill:none;}</style></defs><title>gc-icon</title><rect class="cls-1" width="200" height="200"/><path d="M198.15,51l-7.07,5.83-54,44.57L191,144.74l7.1,5.71a25.46,25.46,0,0,0,1.93-9.69V60.47A25.56,25.56,0,0,0,198.15,51Z"/><path d="M183.38,155.19,126.9,109.81l-14.47,11.94a19.07,19.07,0,0,1-23.59,0l-15-12.36-56.9,46L10.07,161a25.87,25.87,0,0,0,15.46,5.34H174.47a25.74,25.74,0,0,0,15.76-5.59Z"/><path d="M9.16,56.09l-7-5.79A25.54,25.54,0,0,0,0,60.47v80.29a25.56,25.56,0,0,0,2.07,10.06l7.07-5.72L63.69,101Z"/><path d="M174.47,34.94H25.53A25.32,25.32,0,0,0,10.17,40.2L17,45.83l80,66a5.71,5.71,0,0,0,3.57,1.14,5.89,5.89,0,0,0,3.27-.94h0l.35-.22,4-3.29L183.7,46.21l6.71-5.53A25.26,25.26,0,0,0,174.47,34.94Z"/></svg>