<svg id="Layer_1" data-name="Layer 1" xmlns="http://www.w3.org/2000/svg" viewBox="0 0 200 200"><defs><style>.cls-1{fill:none;}</style></defs><title>gc-icon</title><rect class="cls-1" x="0.25" width="200" height="200"/><path d="M14.55,100.86v89.48a8.8,8.8,0,0,0,3.09,7A11,11,0,0,0,25.1,200H35.65a11,11,0,0,0,7.46-2.67,8.8,8.8,0,0,0,3.09-7V100.86a40.27,40.27,0,0,1-31.65,0Z"/><path d="M46.2,26.59V9.76a8.8,8.8,0,0,0-3.09-7A11,11,0,0,0,35.65.12H25.1a11,11,0,0,0-7.45,2.67,8.8,8.8,0,0,0-3.1,7V26.59a40.27,40.27,0,0,1,31.65,0Z"/><path d="M46.2,37.8A30.36,30.36,0,1,0,60.76,63.73,30.23,30.23,0,0,0,46.2,37.8Z"/><path d="M153.8,100.86v89.48a8.8,8.8,0,0,0,3.09,7,11,11,0,0,0,7.46,2.67H174.9a11,11,0,0,0,7.45-2.67,8.8,8.8,0,0,0,3.1-7V100.86a40.27,40.27,0,0,1-31.65,0Z"/><path d="M185.45,26.59V9.76a8.8,8.8,0,0,0-3.09-7A11,11,0,0,0,174.9.12H164.35a11,11,0,0,0-7.46,2.67,8.8,8.8,0,0,0-3.09,7V26.59a40.27,40.27,0,0,1,31.65,0Z"/><path d="M185.45,37.8A30.37,30.37,0,1,0,200,63.73,30.27,30.27,0,0,0,185.45,37.8Z"/><path d="M115.82,99.24V9.76a8.8,8.8,0,0,0-3.09-7A11,11,0,0,0,105.28.12H94.73a11,11,0,0,0-7.46,2.67,8.8,8.8,0,0,0-3.09,7V99.24a40.13,40.13,0,0,1,31.64,0Z"/><path d="M84.18,173.51v16.83a8.8,8.8,0,0,0,3.09,7A11,11,0,0,0,94.72,200h10.55a11,11,0,0,0,7.46-2.67,8.8,8.8,0,0,0,3.09-7V173.51a40.24,40.24,0,0,1-31.64,0Z"/><path d="M84.18,162.29a30.35,30.35,0,1,0-14.56-25.92A30.15,30.15,0,0,0,84.18,162.29Z"/></svg>