<svg id="Layer_1" data-name="Layer 1" xmlns="http://www.w3.org/2000/svg" viewBox="0 0 200 200"><defs><style>.cls-1{fill:none;}</style></defs><title>gc-icon</title><rect class="cls-1" width="200" height="200"/><path d="M115.92,53.25c-1.19-.87-29.47-21.33-57.17-21.33-19.67,0-29,10.29-33.45,18.91A44.93,44.93,0,0,0,20.59,69.4v31.15H3.84a3.84,3.84,0,0,0-2.71,6.56L42.3,148.29a3.84,3.84,0,0,0,5.44,0l41.18-41.18a3.85,3.85,0,0,0-2.72-6.56H69.45V68.71c0-4.08,1.77-6.85,5.56-8.72,3.54-1.74,8.64-2.62,15.14-2.62a111,111,0,0,1,22.6,2.72,4,4,0,0,0,.9.11,3.85,3.85,0,0,0,2.27-7Z"/><path d="M84.08,153.45c1.19.88,29.47,21.33,57.17,21.33,19.67,0,29.05-10.28,33.45-18.91a44.9,44.9,0,0,0,4.71-18.56V106.15h16.75a3.84,3.84,0,0,0,2.71-6.56L157.7,58.42a3.84,3.84,0,0,0-5.44,0L111.08,99.59a3.84,3.84,0,0,0,2.72,6.56h16.75V138c0,4.08-1.77,6.84-5.56,8.71-3.54,1.75-8.64,2.63-15.14,2.63a111.85,111.85,0,0,1-22.6-2.72,3.47,3.47,0,0,0-.9-.11,3.84,3.84,0,0,0-2.27,6.94Z"/></svg>