<svg id="Layer_1" data-name="Layer 1" xmlns="http://www.w3.org/2000/svg" viewBox="0 0 200 200"><defs><style>.cls-1{fill:none;}</style></defs><title>gc-icon</title><rect class="cls-1" width="200" height="200"/><path d="M101.78,0C47.61,0,3.54,43.74,3.54,97.5A96.75,96.75,0,0,0,17,146.8L.14,196.57a2.6,2.6,0,0,0,3.24,3.31l51.9-16.49A99,99,0,0,0,101.78,195C155.94,195,200,151.25,200,97.5S155.94,0,101.78,0Zm49.35,131.29c-2.43,6.77-13.15,12.33-18,12.76l-.72.07a38.85,38.85,0,0,1-4,.23h0c-3.8,0-10.49-.65-24.61-6.29C89.1,132.2,74.64,119.64,63,102.69c-.2-.29-.34-.5-.42-.6-3-4-10.08-14.49-10.08-25.61,0-12.36,5.91-19.39,9.41-21.6,3.3-2.07,10.75-3.06,12.12-3.11,1.13-.05.86-.05,1.13-.05,2.89,0,5,1.75,6.54,5.52.66,1.56,6.81,16.42,7.16,17.11a6.8,6.8,0,0,1,.2,6.4l-.33.66a15.7,15.7,0,0,1-2.37,3.76c-.39.44-.78.92-1.18,1.39-.83,1-1.69,2-2.48,2.83a4.82,4.82,0,0,0-.86,1,1.46,1.46,0,0,0,.25.57c1.62,2.76,13.5,19.1,29.14,25.89.68.3,2.94,1.23,3.07,1.23s.39-.25.56-.45c1.37-1.54,5.78-6.69,7.23-8.86a5.77,5.77,0,0,1,4.91-2.91,10.09,10.09,0,0,1,3.4.75c2.59.94,17.17,8.12,17.56,8.3,1.91.92,3.42,1.64,4.29,3.08C153.56,120.12,153.05,126,151.13,131.29Z"/></svg>