<svg id="Layer_1" data-name="Layer 1" xmlns="http://www.w3.org/2000/svg" viewBox="0 0 200 200"><defs><style>.cls-1{fill:none;}</style></defs><title>gc-icon</title><rect class="cls-1" width="200" height="200"/><path d="M160,10H40A40.12,40.12,0,0,0,0,50V150a40.12,40.12,0,0,0,40,40H160a40.12,40.12,0,0,0,40-40V50A40.12,40.12,0,0,0,160,10ZM100,141a14.55,14.55,0,1,1,14.55-14.55A14.55,14.55,0,0,1,100,141Zm28.1-27.64a31,31,0,0,0-21.94-16L100,75.84,93.73,97.69A31,31,0,0,0,73.6,113.33H33.11a69.26,69.26,0,0,1,135.48,0Z"/></svg>