<svg id="Layer_1" data-name="Layer 1" xmlns="http://www.w3.org/2000/svg" viewBox="0 0 200 200"><defs><style>.cls-1{fill:none;}</style></defs><title>gc-icon</title><rect class="cls-1" width="200" height="200" transform="translate(200 200) rotate(-180)"/><path d="M46.84,84.49h8s-4.52-17-26.29-17S0,87,0,96.82,3.7,118,14.38,123.93s24.86,4.73,32.46-4.31l2.47,6.57h5.54V95.58H28.15v6h18.9s-1,12.53-12.33,18.08S10.27,117.15,9,102s5.55-26.71,16-28.14S43.55,76.07,46.84,84.49Z"/><path d="M84.85,68.26V78.53S70.88,81,69.23,95.17c0,0-2.26,17,15.62,21.37v10.07s-25.07-2.06-26.5-29.18C58.35,97.43,57.11,73.6,84.85,68.26Z"/><path d="M147.92,111.61a10.48,10.48,0,1,0,10.48,10.48A10.48,10.48,0,0,0,147.92,111.61Zm0,17.36a6.83,6.83,0,1,1,6.83-6.83A6.83,6.83,0,0,1,147.87,129Z"/><path d="M119,125.64a6.82,6.82,0,1,1-.16-7.27l2.79-2.49a10.47,10.47,0,1,0,0,12.4Z"/><path d="M112.48,108.18a13.83,13.83,0,0,1,2.33.2l0-.06s6.37-12.53-3.08-27.53c0,0-7-10.27-18.69-11.91V79.35a18.58,18.58,0,0,1,11.5,10.07c4.11,8.42.41,23.21-11.5,26.5v10.69a22.1,22.1,0,0,0,5.87-2.2,14.36,14.36,0,0,1-.22-2.47A13.76,13.76,0,0,1,112.48,108.18Z"/><polygon points="137.13 131.74 124.09 131.74 124.09 112.43 127.38 112.43 127.38 128.45 137.13 128.45 137.13 131.74"/><path d="M175.55,112.33v10.89s.41,5.34-5.13,5.34-5.14-5.34-5.14-5.34V112.33h-3.7v11.09c0,9.25,8.84,9,8.84,9s8.83.21,8.83-9V112.33Z"/><path d="M190.14,112.33h-7.6v19.72h6.78s10.68.41,10.68-9.25S193.22,112.33,190.14,112.33ZM190,129h-3.87v-13.6h4.34c1.76,0,5.63.57,5.63,7.22S190,129,190,129Z"/><rect class="cls-1" width="200" height="200" transform="translate(200 200) rotate(-180)"/></svg>