<svg id="Layer_1" data-name="Layer 1" xmlns="http://www.w3.org/2000/svg" viewBox="0 0 200 200"><defs><style>.cls-1{fill:none;}</style></defs><title>gc-icon</title><rect class="cls-1" width="200" height="200"/><path d="M20,200.15a20,20,0,0,1-20-20V105.51a20,20,0,0,1,40,0v74.64A20,20,0,0,1,20,200.15Z"/><path d="M73.33,200.15a20,20,0,0,1-20-20v-160a20,20,0,0,1,40,0v160A20,20,0,0,1,73.33,200.15Z"/><path d="M180,200.15a20,20,0,0,1-20-20V142.34a20,20,0,0,1,40,0v37.81A20,20,0,0,1,180,200.15Z"/><path d="M126.67,200.15a20,20,0,0,1-20-20V70.59a20,20,0,1,1,40,0V180.15A20,20,0,0,1,126.67,200.15Z"/></svg>