<svg id="Layer_1" data-name="Layer 1" xmlns="http://www.w3.org/2000/svg" viewBox="0 0 200 200"><defs><style>.cls-1{fill:none;}.cls-2{fill:#010101;}</style></defs><title>gc-icon</title><rect class="cls-1" x="-0.17" width="200" height="200"/><path class="cls-2" d="M114,19.7a8,8,0,0,0-5.23-1.95,7.65,7.65,0,0,0-1.16.09A82.54,82.54,0,0,0,57.38,45.3,81.43,81.43,0,0,0,50.76,54H22.83a8,8,0,0,0-8,8v75.05a8,8,0,0,0,8,8H50.76a83.49,83.49,0,0,0,6.62,8.7,82.54,82.54,0,0,0,50.22,27.46,7.65,7.65,0,0,0,1.16.09,8,8,0,0,0,8-8V25.75A8,8,0,0,0,114,19.7Z"/><path class="cls-2" d="M138.39,138.91a6,6,0,0,1-3.4-11,34.37,34.37,0,0,0,0-56.87,6,6,0,0,1,6.78-9.91,46.39,46.39,0,0,1,0,76.69A6,6,0,0,1,138.39,138.91Z"/><path class="cls-2" d="M138.38,164.83a6,6,0,0,1-2.15-11.6,57.51,57.51,0,0,0,0-107.41,6,6,0,1,1,4.31-11.2,69.51,69.51,0,0,1,0,129.81A6.07,6.07,0,0,1,138.38,164.83Z"/></svg>