<svg id="Layer_1" data-name="Layer 1" xmlns="http://www.w3.org/2000/svg" viewBox="0 0 200 200"><defs><style>.cls-1{fill:none;}.cls-2{fill:#010101;}</style></defs><title>gc-icon</title><rect class="cls-1" width="200" height="200"/><path class="cls-2" d="M196.08,77.59a13.12,13.12,0,0,0-9.25-3.9H126.19l.08-60.52A13.48,13.48,0,0,0,113.07,0L86.91,0A13.13,13.13,0,0,0,73.72,13.1v0a.2.2,0,0,0,0,.11V73.69l-60.52.07A13.14,13.14,0,0,0,0,86.85H0V113a13.25,13.25,0,0,0,13.2,13.2l60.52-.08V186.8A13.25,13.25,0,0,0,86.92,200H113a13.37,13.37,0,0,0,13.2-13.2V126.16l60.52.08a13.36,13.36,0,0,0,13.2-13.2L200,86.88A13.07,13.07,0,0,0,196.08,77.59Z"/></svg>