<svg id="Layer_1" data-name="Layer 1" xmlns="http://www.w3.org/2000/svg" viewBox="0 0 200 200"><defs><style>.cls-1{fill:none;}</style></defs><title>gc-icon</title><rect class="cls-1" x="0.04" width="200" height="200"/><path d="M66.67,0h-50A16.67,16.67,0,0,0,0,16.67V183.33A16.67,16.67,0,0,0,16.67,200h50a16.66,16.66,0,0,0,16.66-16.67V16.67A16.66,16.66,0,0,0,66.67,0Z"/><path d="M183.33,0h-50a16.66,16.66,0,0,0-16.66,16.67V183.33A16.66,16.66,0,0,0,133.33,200h50A16.67,16.67,0,0,0,200,183.33V16.67A16.67,16.67,0,0,0,183.33,0Z"/></svg>