<svg id="Layer_1" data-name="Layer 1" xmlns="http://www.w3.org/2000/svg" viewBox="0 0 200 200"><defs><style>.cls-1{fill:none;}.cls-2{fill:#010101;}</style></defs><title>gc-icon</title><rect class="cls-1" x="0.39" width="200" height="200"/><path class="cls-2" d="M177.73,3.87h0a13.35,13.35,0,0,0-18.64,0L155.23,7.7,3.81,159.12a13.36,13.36,0,0,0-.05,18.57l.05.05h0l18.52,18.52a9.46,9.46,0,0,0,2,1.49,13.36,13.36,0,0,0,16.75-1.54L192.28,45h0l3.89-3.89a13.38,13.38,0,0,0,0-18.67L177.73,3.87Z"/><path class="cls-2" d="M22.27,3.87h0a13.35,13.35,0,0,1,18.64,0L44.77,7.7,196.19,159.12a13.36,13.36,0,0,1,.05,18.57l-.05.05h0l-18.52,18.52a9.46,9.46,0,0,1-2,1.49A13.36,13.36,0,0,1,159,196.21L7.72,45h0L3.83,41.09a13.38,13.38,0,0,1,0-18.67L22.27,3.87Z"/></svg>