<svg id="Layer_1" data-name="Layer 1" xmlns="http://www.w3.org/2000/svg" xmlns:xlink="http://www.w3.org/1999/xlink" viewBox="0 0 200 200"><defs><style>.cls-1{fill:none;}.cls-2{clip-path:url(#clip-path);}</style><clipPath id="clip-path"><rect class="cls-1" width="93.67" height="200"/></clipPath></defs><title>gc-icon</title><rect class="cls-1" width="200" height="200" transform="translate(200 200) rotate(-180)"/><rect class="cls-1" width="200" height="200"/><path d="M141.78,45.84l55.09,55.1a10.44,10.44,0,0,1,3.13,7.7,10,10,0,0,1-3.13,7.61l-55.09,55.09a10.49,10.49,0,0,1-7.7,3.22,10.38,10.38,0,0,1-7.62-3.22L120.11,165a10.65,10.65,0,0,1,0-15.24l24.8-24.88H85.33a9,9,0,0,1-7.15-3.17,11.32,11.32,0,0,1-2.75-7.66V103.22a11.32,11.32,0,0,1,2.75-7.66,9,9,0,0,1,7.15-3.17h59.58l-24.8-24.88a10.07,10.07,0,0,1-3.21-7.62,10.51,10.51,0,0,1,3.21-7.7l6.35-6.34a10.74,10.74,0,0,1,7.62-3.14A10.87,10.87,0,0,1,141.78,45.84Z"/><g class="cls-2"><g id="surface1"><path d="M0,0A66.67,66.67,0,0,0-66.67,66.67,66.67,66.67,0,0,0,0,133.33,66.67,66.67,0,0,0,66.67,66.67,66.67,66.67,0,0,0,0,0ZM-38.54,144.79c-24.81,6.51-44.21,22-53.13,55.21H91.67c-8.92-33.2-28.32-48.7-53.13-55.21A81.43,81.43,0,0,1,0,154.43,81.43,81.43,0,0,1-38.54,144.79Z"/></g></g></svg>