<svg id="Layer_1" data-name="Layer 1" xmlns="http://www.w3.org/2000/svg" viewBox="0 0 200 200"><defs><style>.cls-1{fill:none;}</style></defs><title>gc-icon</title><rect class="cls-1" width="200" height="200"/><path d="M144.81,0H55.19A55.25,55.25,0,0,0,0,55.19v89.62A55.25,55.25,0,0,0,55.19,200h89.62A55.25,55.25,0,0,0,200,144.81V55.19A55.25,55.25,0,0,0,144.81,0ZM100,151.53A51.53,51.53,0,1,1,151.54,100,51.58,51.58,0,0,1,100,151.53Zm62.9-95.89a13,13,0,1,1,3.81-9.21A13.14,13.14,0,0,1,162.9,55.64Z"/><path d="M100,66.21A33.79,33.79,0,1,0,133.79,100,33.83,33.83,0,0,0,100,66.21Z"/></svg>