<svg id="Layer_1" data-name="Layer 1" xmlns="http://www.w3.org/2000/svg" viewBox="0 0 200 200"><defs><style>.cls-1{fill:none;}.cls-2{fill:#010101;}</style></defs><title>gc-icon_logo-upcom</title><rect class="cls-1" width="200" height="200"/><path class="cls-2" d="M174.65,102.7c0-.37-.2-.6-.67-.6h-.69v1.22H174C174.45,103.32,174.65,103.07,174.65,102.7Z"/><path class="cls-2" d="M160.48,104.86a1.38,1.38,0,1,0-1.28-1.39A1.26,1.26,0,0,0,160.48,104.86Z"/><path class="cls-2" d="M182.21,103.49a1.26,1.26,0,0,0-1.37-1.38h-.59v2.74h.59A1.24,1.24,0,0,0,182.21,103.49Z"/><path class="cls-2" d="M187.31,102.6c0-.33-.23-.52-.62-.52h-.76v1h.76C187.08,103.12,187.31,102.94,187.31,102.6Z"/><path class="cls-2" d="M157.11,102.69c0-.38-.21-.6-.68-.6h-.66v1.2h.66C156.9,103.29,157.11,103.06,157.11,102.69Z"/><path class="cls-2" d="M186.75,103.76h-.82v1.12h.83c.41,0,.65-.2.65-.55S187.15,103.76,186.75,103.76Z"/><path class="cls-2" d="M194.69,96.22H151.93a5.3,5.3,0,0,0-5.31,5.3V121a5.3,5.3,0,0,0,5.31,5.3h42.76A5.3,5.3,0,0,0,200,121V101.52A5.3,5.3,0,0,0,194.69,96.22Zm-5.18,5.19.89,1.9.88-1.9h.93l-1.4,2.7v1.45H190v-1.45l-1.41-2.7Zm-13.25,0h2.41v.67h-1.58v1h1.4v.66h-1.4v1.1h1.58v.68h-2.41Zm-15.78-.06a2.13,2.13,0,1,1-2.13,2.12A2.07,2.07,0,0,1,160.48,101.35Zm-5.54.06h1.53c1,0,1.49.57,1.49,1.28s-.42,1.27-1.49,1.27h-.7v1.6h-.83Zm.34,13.66c.26,3.2,3,4.89,5.41,3.72a5,5,0,0,0,2.59-3.81h-4v-1.25h5.63v6.45h-1.17l-.52-1.39a5.51,5.51,0,0,1-6.83.91,6.3,6.3,0,0,1-3-5.71c0-2.08,1.42-6.19,6-6.19s5.54,3.59,5.54,3.59h-1.69c-.69-1.77-2.38-2.55-4.58-2.25S155,111.87,155.28,115.07Zm8.77-9.51-1.12-4.15h.9l.73,3.22.84-3.22h.93l.79,3.2.74-3.2h.9l-1.16,4.15h-1l-.78-3-.81,3Zm7.2,4.58a4.07,4.07,0,0,0,0,8v2.12a6.24,6.24,0,0,1-5.59-6.14s-.26-5,5.59-6.15Zm.45-8.06h-1.57v1h1.39v.66h-1.39v1.1h1.57v.68h-2.4v-4.15h2.4Zm.76-.67H174c1,0,1.5.58,1.5,1.27a1.2,1.2,0,0,1-.95,1.2l1,1.68h-1l-.91-1.62h-.39v1.62h-.83Zm.52,18.85V118c2.51-.69,3.29-3.8,2.42-5.58a3.93,3.93,0,0,0-2.42-2.12V108.1a6.36,6.36,0,0,1,3.93,2.51,6.12,6.12,0,0,1,.65,5.8h0a4,4,0,0,0-.5,0,2.89,2.89,0,0,0-2.89,2.9,3,3,0,0,0,0,.52A4.52,4.52,0,0,1,173,120.26Zm4.24,1.26a2.21,2.21,0,0,1,0-4.42,2.23,2.23,0,0,1,1.78.9l-.59.53a1.44,1.44,0,1,0,0,1.53l.56.55A2.2,2.2,0,0,1,177.22,121.52Zm2.2-20.11h1.45a2.08,2.08,0,1,1,0,4.15h-1.45Zm2.84,19.93h-2.75v-4.06h.69v3.37h2.06Zm2.27.18a2.21,2.21,0,1,1,2.21-2.21A2.21,2.21,0,0,1,184.53,121.52Zm.57-16v-4.15h1.71c.86,0,1.34.45,1.34,1.07a1,1,0,0,1-.7,1,1,1,0,0,1,.8,1c0,.66-.51,1.13-1.37,1.13Zm6,14a1.86,1.86,0,1,1-3.72,0v-2.33h.78v2.29a1.08,1.08,0,1,0,2.16,0v-2.29h.78Zm2.12,1.82h-1.43v-4.15h1.6a1.92,1.92,0,0,1,2.08,2.2C195.5,121.5,193.25,121.41,193.25,121.41Z"/><circle class="cls-2" cx="184.52" cy="119.32" r="1.44" transform="translate(-19.24 37.05) rotate(-10.9)"/><path class="cls-2" d="M193.49,117.9h-.91v2.86h.81a1.23,1.23,0,0,0,1.29-1.34C194.68,118,193.86,117.9,193.49,117.9Z"/><path class="cls-2" d="M44.53,96.14a8.19,8.19,0,0,0-6.66,3.9V96.62H30.63V126.2h8v-9.64a7.81,7.81,0,0,0,5.87,2.89c4.93,0,8.93-5.22,8.93-11.66S49.46,96.14,44.53,96.14ZM42,112.7c-1.91,0-3.46-2.33-3.46-5.19s1.55-5.18,3.46-5.18,3.46,2.32,3.46,5.18S43.87,112.7,42,112.7Z"/><path class="cls-2" d="M78.05,96.14l.49-6s-3.7-2.25-11.42-1.93-11.57,9-11.25,16.56,3.21,11.9,7.72,13.18,12.86,1.29,15.11-.32v-6.27a8.65,8.65,0,0,1-6.27,1.93c-4.18-.16-9.17-1.61-9.17-8.52S66,95.33,69.53,94.53,77.09,95.17,78.05,96.14Z"/><path class="cls-2" d="M92.52,96.14a11.58,11.58,0,1,0,11.74,11.57A11.65,11.65,0,0,0,92.52,96.14Zm-.08,17.36c-2.08,0-3.77-2.59-3.77-5.79s1.69-5.79,3.77-5.79,3.78,2.6,3.78,5.79S94.53,113.5,92.44,113.5Z"/><path class="cls-2" d="M135.93,96.14c-6.59-.49-8.52,4-8.52,4a6.44,6.44,0,0,0-6.59-4,8.09,8.09,0,0,0-6.41,3.7l0-.33V96.62H107v21.86h7.88v-12c0-1,.32-3.7,3.06-3.7s2.57,4.18,2.57,4.18v11.57h8V106.27s-.32-3.38,2.73-3.38a2.81,2.81,0,0,1,2.89,3v12.54H142V104C142,96.46,135.93,96.14,135.93,96.14Z"/><path class="cls-2" d="M28.14,107.38V68.64a.4.4,0,0,0-.77-.17L17.73,87.76a.37.37,0,0,0-.05.18v20c0,.07,0,.13,0,.19a3.32,3.32,0,0,1-.84,2.37,3.29,3.29,0,0,1-2.45.84,3.17,3.17,0,0,1-3.46-3.14V87.94a.4.4,0,0,0-.4-.4H.4a.4.4,0,0,0-.4.4v16.88c0,.18,0,.35,0,.53.17,7.39,3.9,10.94,7,12.62a16.26,16.26,0,0,0,7,1.88c4.83,0,8.52-1.32,11-3.93A12.36,12.36,0,0,0,28.14,107.38Zm-3.69,8c-2.29,2.44-5.78,3.68-10.38,3.68a15.86,15.86,0,0,1-6.67-1.8,11.75,11.75,0,0,1-5.84-7.06c1.71,3.44,4.32,4.93,7.25,5.11,10.41.59,9.68-7.79,9.68-7.79V88l8.84-17.68v37.07A11.62,11.62,0,0,1,24.45,115.37Z"/><path class="cls-2" d="M78.79,126.36c-.15-.27-.44-.13-.65-.22a1.42,1.42,0,0,1-1-1,1.21,1.21,0,0,1,.53-1.33c.38-.25.47-.43.22-.87a1.1,1.1,0,0,1,.61-1.57,1.47,1.47,0,0,1,2,.53,1,1,0,0,1-.61,1.39c-.48.26-.48.47-.07.78a2.19,2.19,0,0,1,.34.34c.47.56.72.35.88-.24,0-.15.09-.31.14-.45s.34-.25.54-.19.16.29.12.46a1.1,1.1,0,0,1-.16.45c-.42.6-.57,1.17.25,1.74a3.65,3.65,0,0,0-2.94.22Zm.26-.65c.38,0,.8-.06,1-.37s-.31-.42-.48-.63a3.84,3.84,0,0,0-.46-.44c-.23-.19-.41-.56-.79-.23a.83.83,0,0,0-.33,1A1.1,1.1,0,0,0,79.05,125.71Zm.75-3.42c0-.4-.23-.61-.61-.6a.62.62,0,0,0-.69.68c0,.31.13.73.47.71A.89.89,0,0,0,79.8,122.29Z"/><path class="cls-2" d="M128,125c0-1.17,0-2.15,0-3.13,0-.26-.08-.56.34-.59s.43.29.43.59c0,1.23,0,2.46,0,3.69,0,.23.1.54-.23.61a.72.72,0,0,1-.84-.29c-.76-1.07-1.54-2.13-2.31-3.19-.05-.07-.11-.15-.26-.33v3.24c0,.25.09.56-.34.59s-.44-.28-.44-.58c0-1.21,0-2.41,0-3.62,0-.24-.14-.59.22-.69a.78.78,0,0,1,.91.32C126.26,122.68,127.06,123.74,128,125Z"/><path class="cls-2" d="M61.08,125c0-1.17,0-2.15,0-3.14,0-.24-.1-.57.34-.58s.42.31.42.6c0,1.21,0,2.41,0,3.62,0,.25.11.57-.27.66a.7.7,0,0,1-.82-.34c-.39-.57-.83-1.11-1.24-1.67s-.8-1.12-1.31-1.83c0,1.19,0,2.22,0,3.24,0,.28.09.63-.39.62s-.38-.35-.38-.63c0-1.2,0-2.41,0-3.61,0-.24-.13-.58.26-.66a.82.82,0,0,1,.91.35c.72,1,1.45,2,2.18,3Z"/><path class="cls-2" d="M43.72,123.52c.78.32,1.18.82,1,1.58s-.88,1-1.56,1.06c-2,.3-2.08.22-2.08-1.74,0-.85,0-1.71,0-2.57,0-.39.13-.61.54-.61a14.37,14.37,0,0,1,1.61,0,1.35,1.35,0,0,1,1.3.9C44.67,122.79,44.32,123.18,43.72,123.52Zm-1.88,1.24c.06.36-.24.93.56.92s1.52-.37,1.5-1-.6-.86-1.47-.89S41.88,124.33,41.84,124.76Zm0-2.24c-.06.48,0,.87.62.79s1.24-.08,1.23-.81-.69-.68-1.21-.75S41.76,122,41.85,122.52Z"/><path class="cls-2" d="M92.83,123.66c0-.56,0-1.13,0-1.69s.21-.76.74-.74a6.79,6.79,0,0,1,1.91.13,1.19,1.19,0,0,1,.52,2.12c-.28.26-.4.38-.09.72s.4,1.1.63,1.64c0,.14.07.28-.12.3s-.56.09-.69-.23-.24-.71-.34-1.07a1,1,0,0,0-.77-.73c-.76-.18-1,0-1,.75v.89c0,.23-.07.41-.37.41s-.45-.11-.45-.41v-2.09Zm.79-1c.08.37-.23,1,.59.91s1.48-.4,1.43-.94c-.07-.79-.71-.81-1.3-.88S93.56,122.1,93.62,122.66Z"/><path class="cls-2" d="M141.1,123.83a3,3,0,0,1,.9,1.81c.05.17.29.42-.09.5-.23,0-.5.09-.63-.2s-.16-.51-.25-.76a3,3,0,0,0-.31-.73,1.14,1.14,0,0,0-1.24-.35c-.49.08-.22.52-.26.8a3.56,3.56,0,0,0,0,.8c0,.28-.07.46-.4.47s-.4-.17-.4-.46q0-2,0-3.93c0-.38.14-.54.51-.54s1,0,1.44,0c.66.06,1.31.2,1.56.92S141.76,123.38,141.1,123.83Zm-1.88-1.1c.07.27-.28.88.55.84s1.46-.4,1.4-1c-.08-.8-.74-.78-1.32-.85S139.18,122.16,139.22,122.73Z"/><path class="cls-2" d="M88.65,123.55c.1-.66-.36-1.72.19-2.17s1.48-.13,2.26-.12c.25,0,.68-.18.68.29s-.44.25-.69.29a2.48,2.48,0,0,1-.72,0c-.79-.13-1,.25-.9,1,0,.36.13.54.52.52s.8,0,1.2,0c.23,0,.54-.08.52.31s-.27.28-.48.28a10.65,10.65,0,0,1-1.13,0c-.77-.08-.59.46-.62.89s0,.86.65.79a12.34,12.34,0,0,1,1.36,0c.22,0,.46,0,.45.31s-.22.27-.41.27c-.81,0-1.61,0-2.41,0-.36,0-.48-.15-.47-.48C88.66,125,88.65,124.35,88.65,123.55Z"/><path class="cls-2" d="M134.19,123.66c0-.64,0-1.29,0-1.93,0-.33.11-.49.47-.48.75,0,1.5,0,2.25,0,.24,0,.43,0,.4.35s-.24.24-.42.24a8.37,8.37,0,0,1-1.12,0c-.59-.07-.78.13-.78.74s.24.79.8.73c.35,0,.7,0,1.05,0,.19,0,.39,0,.4.27s-.2.32-.43.32H136c-1,0-1.26.45-1,1.39.08.3.28.28.49.28h1.6c.22,0,.38.06.35.32s-.15.26-.33.26h-2.57c-.35,0-.37-.24-.37-.49Z"/><path class="cls-2" d="M120.13,123.67c0-.65,0-1.29,0-1.93,0-.32.08-.5.44-.49.78,0,1.55,0,2.33,0,.2,0,.38,0,.4.28s-.23.31-.44.31a8.52,8.52,0,0,1-1.13,0c-.59-.06-.77.14-.78.75s.28.77.82.72c.35,0,.7,0,1,0s.36.09.34.34-.17.25-.34.25c-.42,0-.85,0-1.28,0-.73,0-.54.49-.55.88s-.13.84.54.8c.51,0,1,0,1.53,0,.19,0,.39,0,.39.28s-.17.3-.38.3h-2.48c-.36,0-.46-.17-.46-.5C120.14,125,120.13,124.33,120.13,123.67Z"/><path class="cls-2" d="M45.68,123v-1.2c0-.3,0-.61.43-.59s.36.3.36.56c0,.83,0,1.67,0,2.49a1.27,1.27,0,0,0,1.69,1.3c.75-.16,1-.72,1-1.37,0-.81,0-1.61,0-2.41,0-.32,0-.59.46-.57s.36.3.36.56c0,.81,0,1.61,0,2.41,0,1.36-.83,2-2.27,2a1.84,1.84,0,0,1-2-2C45.67,123.79,45.68,123.42,45.68,123Z"/><path class="cls-2" d="M64.72,126.16c-1.67,0-1.67,0-1.67-1.67,0-.91,0-1.82,0-2.72,0-.38.12-.54.51-.53.72,0,1.44,0,2.16,0,.23,0,.53,0,.51.33s-.28.26-.48.26a9.26,9.26,0,0,1-1.29,0c-.61-.07-.61.28-.61.72s0,.81.61.76c.43,0,.86,0,1.28,0,.22,0,.37.08.35.33s-.16.26-.33.26c-.46,0-.91,0-1.37,0-.76-.05-.51.51-.52.88s-.17.85.52.8c.51,0,1,0,1.53,0,.22,0,.45,0,.42.33s-.22.26-.41.26Z"/><path class="cls-2" d="M110.75,126.16c-1.55,0-1.55,0-1.55-1.55,0-.94,0-1.88,0-2.81,0-.34.06-.57.48-.56.75,0,1.5,0,2.25,0,.23,0,.44,0,.43.33s-.23.26-.41.26a6.14,6.14,0,0,1-1,0c-.73-.11-1,.17-.91.91,0,.39.1.6.54.56a4.4,4.4,0,0,1,1,0c.26,0,.7-.19.71.27s-.48.25-.75.31a1.78,1.78,0,0,1-.4,0c-1.08,0-1.06,0-1.06,1.08,0,.44.12.64.59.6s1,0,1.44,0c.21,0,.46,0,.48.28s-.24.3-.46.3C111.61,126.17,111.18,126.16,110.75,126.16Z"/><path class="cls-2" d="M99.18,125.24,100.5,122a4.77,4.77,0,0,1,.22-.52.53.53,0,0,1,.71-.19c.33.13.06.37,0,.54-.53,1.28-1.09,2.56-1.62,3.84a.65.65,0,0,1-.7.51c-.38,0-.49-.23-.6-.52-.48-1.25-1-2.5-1.43-3.75-.08-.2-.41-.49,0-.63a.54.54,0,0,1,.75.38C98.25,122.79,98.68,123.91,99.18,125.24Z"/><path class="cls-2" d="M52.4,126.21a3.2,3.2,0,0,1-1.11-.14c-.23-.08-.38-.19-.27-.47s.27-.2.46-.13a2.75,2.75,0,0,0,1.42.12.78.78,0,0,0,.71-.66.72.72,0,0,0-.48-.76c-.44-.2-.9-.35-1.33-.56a1.2,1.2,0,0,1-.77-1.13,1.26,1.26,0,0,1,.9-1.12,3.57,3.57,0,0,1,1.89-.09c.17,0,.39.09.33.36s-.2.33-.47.26a2.34,2.34,0,0,0-1.26,0,.65.65,0,0,0-.54.53.59.59,0,0,0,.36.65c.34.16.7.28,1,.43.67.28,1.26.65,1.17,1.51-.07.69-.73,1.18-1.65,1.24C52.67,126.22,52.53,126.21,52.4,126.21Z"/><path class="cls-2" d="M72.71,126.21a3.16,3.16,0,0,1-1.2-.15c-.2-.08-.33-.19-.24-.43s.23-.25.44-.17a2.75,2.75,0,0,0,1.42.13.77.77,0,0,0,.73-.63.75.75,0,0,0-.51-.82c-.44-.2-.9-.34-1.33-.55a1.16,1.16,0,0,1-.72-1.08,1.23,1.23,0,0,1,.79-1.11,3.31,3.31,0,0,1,2-.11c.19,0,.37.14.27.39a.3.3,0,0,1-.43.22,2.44,2.44,0,0,0-1.11-.09.72.72,0,0,0-.7.55c-.09.38.16.6.46.74s.6.24.9.36c.68.26,1.27.63,1.2,1.48a1.58,1.58,0,0,1-1.63,1.26A2.67,2.67,0,0,1,72.71,126.21Z"/><path class="cls-2" d="M85.65,126.21a2.8,2.8,0,0,1-1.18-.17.31.31,0,0,1-.19-.45c.08-.2.23-.2.39-.14a2.83,2.83,0,0,0,1.35.16.84.84,0,0,0,.83-.64c.09-.45-.21-.69-.57-.85s-.81-.29-1.19-.48a1.19,1.19,0,0,1-.81-1.18,1.3,1.3,0,0,1,.92-1.11,3.41,3.41,0,0,1,1.9-.06c.17,0,.39.09.29.37s-.16.3-.41.25a4.51,4.51,0,0,0-1-.11c-.37,0-.71.13-.8.54s.19.65.53.8.55.21.82.31c.93.36,1.31.87,1.18,1.58a1.59,1.59,0,0,1-1.63,1.18C85.92,126.22,85.79,126.21,85.65,126.21Z"/><path class="cls-2" d="M68.71,126.2a3.7,3.7,0,0,1-1.34-.12c-.23-.08-.39-.18-.29-.46s.25-.22.45-.15a2.84,2.84,0,0,0,1.26.14c.42,0,.8-.19.87-.67s-.24-.68-.6-.84-.81-.29-1.19-.48a1.17,1.17,0,0,1-.78-1.19,1.32,1.32,0,0,1,1-1.09,3.51,3.51,0,0,1,1.82-.07c.19,0,.44.1.34.42s-.27.23-.5.19a4,4,0,0,0-1-.06.68.68,0,0,0-.71.53.66.66,0,0,0,.46.75c.32.15.65.25,1,.38.87.36,1.23.85,1.1,1.54s-.81,1.06-1.52,1.18C68.8,126.22,68.64,126.2,68.71,126.2Z"/><path class="cls-2" d="M106.83,126.24a3.53,3.53,0,0,1-1.64-.34,2.44,2.44,0,0,1-.27-4.14,3.92,3.92,0,0,1,2.93-.5c.17,0,.47,0,.41.36s-.29.28-.54.24a3.67,3.67,0,0,0-1.28,0,1.81,1.81,0,0,0-1.67,1.91,1.77,1.77,0,0,0,1.72,1.86,3.93,3.93,0,0,0,1.28-.06c.23,0,.42-.1.49.22s-.22.33-.4.37C107.52,126.19,107.17,126.2,106.83,126.24Z"/><path class="cls-2" d="M117.81,126.21c-1.53,0-2.49-.58-2.83-1.65a2.53,2.53,0,0,1,2-3.3,5.47,5.47,0,0,1,1.76,0c.18,0,.47,0,.43.34s-.23.33-.52.28a4.38,4.38,0,0,0-1.2-.05,1.81,1.81,0,0,0-1.78,1.89,1.78,1.78,0,0,0,1.78,1.89,3.67,3.67,0,0,0,1.28-.07c.22-.06.36,0,.43.2s-.11.31-.29.37A3.42,3.42,0,0,1,117.81,126.21Z"/><path class="cls-2" d="M131.05,124a13.81,13.81,0,0,1,0-1.44c.06-.58-.17-.72-.72-.71-.34,0-1,.28-1-.27s.63-.28,1-.29c.91,0,1.82,0,2.72,0,.23,0,.53-.09.56.28s-.28.3-.51.32c-1.25.07-1.25.07-1.25,1.35,0,.82,0,1.65,0,2.48,0,.25,0,.47-.37.48s-.44-.19-.43-.5C131.06,125.1,131.05,124.54,131.05,124Z"/><path class="cls-2" d="M102.2,123.69v-2c0-.28.08-.45.41-.44s.42.14.42.44c0,1.35,0,2.71,0,4.07,0,.25-.09.39-.36.4s-.46-.08-.46-.4C102.21,125.07,102.2,124.38,102.2,123.69Z"/><path class="cls-2" d="M55.45,123.62c0-.64,0-1.28,0-1.92,0-.28.06-.46.4-.45s.4.17.4.45c0,1.34,0,2.67,0,4,0,.28-.08.45-.41.46s-.39-.19-.39-.46C55.46,125,55.45,124.32,55.45,123.62Z"/></svg>