<svg id="Layer_1" data-name="Layer 1" xmlns="http://www.w3.org/2000/svg" viewBox="0 0 200 200"><defs><style>.cls-1{fill:none;}</style></defs><title>gc-icon</title><rect class="cls-1" width="200" height="200"/><rect class="cls-1" width="200" height="200"/><path d="M195.25,93.84,111.68,10.27A15.87,15.87,0,0,0,100,5.52a15.16,15.16,0,0,0-11.55,4.75L4.88,93.84A16,16,0,0,0,0,105.52a15.79,15.79,0,0,0,4.88,11.55l9.62,9.63a15.29,15.29,0,0,0,11.56,4.88,15.26,15.26,0,0,0,11.55-4.88L75.35,89.09v90.37a13.68,13.68,0,0,0,4.82,10.85,17.13,17.13,0,0,0,11.61,4.17h16.44a17.13,17.13,0,0,0,11.61-4.17,13.68,13.68,0,0,0,4.82-10.85V89.09l37.74,37.61a15.26,15.26,0,0,0,11.55,4.88,15.93,15.93,0,0,0,11.68-4.88l9.63-9.62a16.59,16.59,0,0,0,0-23.24Z"/></svg>