<svg id="Layer_1" data-name="Layer 1" xmlns="http://www.w3.org/2000/svg" viewBox="0 0 200 200"><defs><style>.cls-1{fill:none;}</style></defs><title>gc-icon</title><rect class="cls-1" width="200" height="200"/><path d="M115.92,49.9C114.73,49,86.45,28.57,58.75,28.57c-19.67,0-29,10.28-33.45,18.91A44.93,44.93,0,0,0,20.59,66V97.2H3.84a3.84,3.84,0,0,0-2.71,6.56L42.3,144.94a3.86,3.86,0,0,0,5.44,0l41.18-41.18A3.84,3.84,0,0,0,86.2,97.2H69.45V65.35c0-4.07,1.77-6.84,5.56-8.71C78.55,54.9,83.65,54,90.15,54a110.66,110.66,0,0,1,22.6,2.73,3.94,3.94,0,0,0,.9.1,3.84,3.84,0,0,0,2.27-6.94Z"/><path d="M84.08,150.1c1.19.87,29.47,21.33,57.17,21.33,19.67,0,29.05-10.28,33.45-18.91A44.93,44.93,0,0,0,179.41,134V102.8h16.75a3.84,3.84,0,0,0,2.71-6.56L157.7,55.06a3.86,3.86,0,0,0-5.44,0L111.08,96.24a3.84,3.84,0,0,0,2.72,6.56h16.75v31.85c0,4.07-1.77,6.84-5.56,8.71-3.54,1.74-8.64,2.63-15.14,2.63a110.66,110.66,0,0,1-22.6-2.73,3.94,3.94,0,0,0-.9-.1,3.84,3.84,0,0,0-2.27,6.94Z"/></svg>