<svg id="Layer_1" data-name="Layer 1" xmlns="http://www.w3.org/2000/svg" viewBox="0 0 200 200"><defs><style>.cls-1{fill:none;}.cls-2{fill:#010101;}</style></defs><title>gc-icon</title><rect class="cls-1" x="-0.35" width="200" height="200"/><path class="cls-2" d="M114.24,166.9H85.06a6,6,0,0,0-6,6v8.18a20.81,20.81,0,0,0,41.18,0V172.9A6,6,0,0,0,114.24,166.9Z"/><path class="cls-2" d="M170.4,70.75a70.75,70.75,0,1,0-91.34,67.69v14.68a6,6,0,0,0,6,6h29.18a6,6,0,0,0,6-6V138.44A70.76,70.76,0,0,0,170.4,70.75Zm-30.52,0A40.19,40.19,0,0,0,99.65,30.52a6,6,0,0,1,0-12,52.21,52.21,0,0,1,52.23,52.23,6,6,0,0,1-12,0Z"/></svg>