<svg id="Layer_1" data-name="Layer 1" xmlns="http://www.w3.org/2000/svg" viewBox="0 0 200 200"><defs><style>.cls-1{fill:none;}</style></defs><title>gc-icon</title><rect class="cls-1" width="200" height="200"/><path d="M179.13,42.82a73.44,73.44,0,0,0-30-12.55V20.14a20,20,0,0,0-20-20H20.51a20,20,0,0,0-20,20v160a20,20,0,0,0,20,20H129.1a20,20,0,0,0,20-19.63V131a73.43,73.43,0,0,0,30-12.55C192.59,108.62,200,95.19,200,80.64S192.59,52.65,179.13,42.82Zm-38,46.54a9.17,9.17,0,1,1,4.4-7.83A9.14,9.14,0,0,1,141.13,89.36ZM80,187.32a10,10,0,0,1-15.21-8.53,10.05,10.05,0,0,1,4.79-8.53,10,10,0,0,1,14.51,4.88,9.84,9.84,0,0,1,.7,3.65A10,10,0,0,1,80,187.32Zm44.09-31.09H25.51V25.14H124.1v4.25C110.59,30.87,98,35.51,88,42.82,74.58,52.65,67.17,66.08,67.17,80.64s7.41,28,20.87,37.81a66.34,66.34,0,0,0,10.29,6.15l-1.28,10.49A6,6,0,0,0,100,141a6.12,6.12,0,0,0,3.07.83,6,6,0,0,0,3.54-1.15l13-9.44c1.5.25,3,.44,4.52.61Zm-7.33-74.7a9.18,9.18,0,1,1-4.39-7.83A9.19,9.19,0,0,1,116.77,81.53Zm53.12,7.83a9.18,9.18,0,1,1,4.39-7.83A9.17,9.17,0,0,1,169.89,89.36Z"/></svg>