<svg id="Layer_1" data-name="Layer 1" xmlns="http://www.w3.org/2000/svg" viewBox="0 0 200 200"><defs><style>.cls-1{fill:none;}</style></defs><title>gc-icon</title><rect class="cls-1" width="200" height="200"/><path d="M143.27,54.46a2,2,0,0,0-1,.29L92.9,85a1.93,1.93,0,0,0-.36.28,17.31,17.31,0,1,0,24.08,23.15,2.11,2.11,0,0,0,.26-.35L145,57.37a2,2,0,0,0-.36-2.36A2,2,0,0,0,143.27,54.46Z"/><path d="M103.93,28.17c19.24,1.22,30.39,7.5,41.21,16.57a2,2,0,0,0,2.62-.1l17.12-16.51a2,2,0,0,0,.6-1.46,2,2,0,0,0-.67-1.43A99.73,99.73,0,0,0,104.16.85h-.11a1.92,1.92,0,0,0-1.34.54,1.94,1.94,0,0,0-.62,1.42V26.21A2,2,0,0,0,103.93,28.17Z"/><path d="M155,52.4A72.78,72.78,0,0,1,172.56,93a2,2,0,0,0,1.95,1.78h23.38a2,2,0,0,0,1.44-.62,2,2,0,0,0,.52-1.47c-1.51-22.4-10-42.35-25.34-59.32a2,2,0,0,0-1.4-.64h-.05a2,2,0,0,0-1.39.57L155.13,49.72A2,2,0,0,0,155,52.4Z"/><path d="M198,102.49H174.62a2,2,0,0,0-2,1.87,72.4,72.4,0,0,1-72,67.77A73.62,73.62,0,0,1,49,151a70.79,70.79,0,0,1-21.78-51c0-18,7.08-35.36,19.93-49C59.44,37.89,76,29.58,92.56,28.17a2,2,0,0,0,1.8-2V2.81a2,2,0,0,0-2-2h-.12C40.53,4,0,47.55,0,100.1a98.12,98.12,0,0,0,29.47,70.2,99.85,99.85,0,0,0,70.59,29c52.49,0,97.3-42.47,99.93-94.7a1.27,1.27,0,0,0,0-.2A2,2,0,0,0,198,102.49Z"/></svg>