<svg id="Layer_1" data-name="Layer 1" xmlns="http://www.w3.org/2000/svg" viewBox="0 0 200 200"><defs><style>.cls-1{fill:none;}.cls-2{fill:#010101;}</style></defs><title>gc-icon</title><rect class="cls-1" x="0.2" width="200" height="200"/><path class="cls-2" d="M177.93,3.87h0a13.35,13.35,0,0,0-18.64,0L155.43,7.7,4,159.12a13.36,13.36,0,0,0,0,18.57l0,.05H4l18.52,18.52a9.46,9.46,0,0,0,2,1.49,13.36,13.36,0,0,0,16.75-1.54L192.48,45h0l3.89-3.89a13.38,13.38,0,0,0,0-18.67L177.93,3.87Z"/><path d="M46.2,4.53A30.37,30.37,0,1,0,14.55,56.37,30.37,30.37,0,1,0,46.2,4.53Z"/><path d="M185.61,143.7a30.35,30.35,0,1,0,14.56,25.92A30.15,30.15,0,0,0,185.61,143.7Z"/></svg>