<svg id="Layer_1" data-name="Layer 1" xmlns="http://www.w3.org/2000/svg" viewBox="0 0 200 200"><defs><style>.cls-1{fill:none;}</style></defs><title>gc-icon</title><rect class="cls-1" width="200" height="200"/><path d="M197.32,36.31C195.29,34.83,147.16,0,100,0,66.51,0,50.55,17.51,43.06,32.19a76.6,76.6,0,0,0-8,31.6v53H6.54A6.54,6.54,0,0,0,1.92,128L72,198.08a6.53,6.53,0,0,0,9.25,0L151.35,128a6.54,6.54,0,0,0-4.62-11.17H118.22V62.62c0-6.94,3-11.66,9.47-14.84,6-3,14.69-4.47,25.77-4.47,19.08,0,38.26,4.59,38.46,4.64a6.75,6.75,0,0,0,1.54.18,6.54,6.54,0,0,0,3.86-11.82Z"/></svg>