<svg id="Layer_1" data-name="Layer 1" xmlns="http://www.w3.org/2000/svg" viewBox="0 0 200 200"><defs><style>.cls-1{fill:none;}</style></defs><title>gc-icon</title><rect class="cls-1" width="200" height="200"/><path d="M187.49,96.77h-4.16V31.08a14.23,14.23,0,1,0-9.62,0V65a23.93,23.93,0,0,0-14.43-4.86H40.72a24.09,24.09,0,0,0-24,24.06V96.77H12.51A12.52,12.52,0,0,0,0,109.28V139.9a12.52,12.52,0,0,0,12.51,12.51h4.16v20a24.09,24.09,0,0,0,24,24.06H159.28a24.09,24.09,0,0,0,24.05-24.06v-20h4.16A12.52,12.52,0,0,0,200,139.9V109.28A12.52,12.52,0,0,0,187.49,96.77Zm-170.82,46H12.51a2.9,2.9,0,0,1-2.89-2.89V109.28a2.9,2.9,0,0,1,2.89-2.89h4.16Zm45.9,9.62a27.82,27.82,0,1,1,27.82-27.82A27.86,27.86,0,0,1,62.57,152.41Zm74.86,0a27.82,27.82,0,1,1,27.82-27.82A27.85,27.85,0,0,1,137.43,152.41Zm52.95-12.51a2.9,2.9,0,0,1-2.89,2.89h-4.16v-36.4h4.16a2.9,2.9,0,0,1,2.89,2.89Z"/></svg>