<svg id="Layer_1" data-name="Layer 1" xmlns="http://www.w3.org/2000/svg" viewBox="0 0 200 200"><defs><style>.cls-1{fill:#010101;}</style></defs><title>target</title><path d="M10,86.67a10,10,0,0,0,10-10v-50A6.67,6.67,0,0,1,26.67,20h50a10,10,0,0,0,0-20h-50A26.69,26.69,0,0,0,0,26.67v50A10,10,0,0,0,10,86.67Z"/><path d="M173.33,0h-50a10,10,0,1,0,0,20h50A6.67,6.67,0,0,1,180,26.67v50a10,10,0,1,0,20,0v-50A26.69,26.69,0,0,0,173.33,0Z"/><path d="M190,113.33a10,10,0,0,0-10,10v50a6.67,6.67,0,0,1-6.67,6.67h-50a10,10,0,1,0,0,20h50A26.69,26.69,0,0,0,200,173.33v-50A10,10,0,0,0,190,113.33Z"/><path d="M86.67,190a10,10,0,0,0-10-10h-50A6.67,6.67,0,0,1,20,173.33v-50a10,10,0,1,0-20,0v50A26.69,26.69,0,0,0,26.67,200h50A10,10,0,0,0,86.67,190Z"/><path class="cls-1" d="M143.05,86.54H112.86l0-30.12a6.7,6.7,0,0,0-6.56-6.57l-13,0a6.54,6.54,0,0,0-6.56,6.5h0V86.54l-30.12,0a6.54,6.54,0,0,0-6.57,6.52h0v13a6.58,6.58,0,0,0,6.57,6.57l30.12,0v30.19a6.59,6.59,0,0,0,6.57,6.56h13a6.65,6.65,0,0,0,6.57-6.56V112.65l30.12,0a6.65,6.65,0,0,0,6.57-6.57l0-13a6.64,6.64,0,0,0-6.55-6.57Z"/></svg>